<svg width="25" height="24" viewBox="0 0 25 24" fill="none" xmlns="http://www.w3.org/2000/svg">
<path d="M22.5 12C22.5 17.5228 18.0228 22 12.5 22M22.5 12C22.5 6.47715 18.0228 2 12.5 2M22.5 12H2.5M12.5 22C6.97715 22 2.5 17.5228 2.5 12M12.5 22C9.93223 19.3038 8.5 15.7233 8.5 12C8.5 8.27674 9.93223 4.69615 12.5 2M12.5 22C15.0678 19.3038 16.5 15.7233 16.5 12C16.5 8.27674 15.0678 4.69615 12.5 2M2.5 12C2.5 6.47715 6.97715 2 12.5 2" stroke="#09090B" stroke-width="2" stroke-linecap="round" stroke-linejoin="round"/>
</svg>
