<svg width="25" height="24" viewBox="0 0 25 24" fill="none" xmlns="http://www.w3.org/2000/svg">
<path d="M18 6.5H18.01M7.5 2H17.5C20.2614 2 22.5 4.23858 22.5 7V17C22.5 19.7614 20.2614 22 17.5 22H7.5C4.73858 22 2.5 19.7614 2.5 17V7C2.5 4.23858 4.73858 2 7.5 2ZM16.5002 11.3701C16.6236 12.2023 16.4815 13.0523 16.094 13.7991C15.7065 14.5459 15.0933 15.1515 14.3418 15.5297C13.5903 15.908 12.7386 16.0397 11.908 15.906C11.0773 15.7723 10.31 15.3801 9.71503 14.7852C9.12011 14.1903 8.72793 13.4229 8.59426 12.5923C8.4606 11.7616 8.59226 10.91 8.97052 10.1584C9.34878 9.40691 9.95438 8.7938 10.7012 8.4063C11.448 8.0188 12.2979 7.87665 13.1302 8.00006C13.9791 8.12594 14.765 8.52152 15.3719 9.12836C15.9787 9.73521 16.3743 10.5211 16.5002 11.3701Z" stroke="#09090B" stroke-width="2" stroke-linecap="round" stroke-linejoin="round"/>
</svg>
