<svg width="44" height="44" viewBox="0 0 44 44" fill="none" xmlns="http://www.w3.org/2000/svg">
<path d="M29.3333 29.3333H40.3333M34.8333 23.8333V34.8333M38.5 18.3331V14.6665C38.4993 14.0235 38.3296 13.392 38.0078 12.8353C37.686 12.2786 37.2235 11.8163 36.6667 11.4948L23.8333 4.16148C23.2759 3.83967 22.6436 3.67024 22 3.67024C21.3564 3.67024 20.7241 3.83967 20.1667 4.16148L7.33333 11.4948C6.77648 11.8163 6.31396 12.2786 5.99218 12.8353C5.6704 13.392 5.50066 14.0235 5.5 14.6665V29.3332C5.50066 29.9761 5.6704 30.6077 5.99218 31.1644C6.31396 31.721 6.77648 32.1833 7.33333 32.5048L20.1667 39.8381C20.7241 40.16 21.3564 40.3294 22 40.3294C22.6436 40.3294 23.2759 40.16 23.8333 39.8381L27.5 37.7482M13.75 7.82836L30.25 17.27M6.03174 12.8333L22.0001 22M22.0001 22L37.9684 12.8333M22.0001 22L22 40.3333" stroke="url(#paint0_linear_8_627)" stroke-width="3" stroke-linecap="round" stroke-linejoin="round"/>
<defs>
<linearGradient id="paint0_linear_8_627" x1="30.3308" y1="3.67024" x2="4.1158" y2="17.1121" gradientUnits="userSpaceOnUse">
<stop stop-color="#00423B"/>
<stop offset="0.307692" stop-color="#00423B"/>
<stop offset="1" stop-color="#3E9C92"/>
</linearGradient>
</defs>
</svg>
