<svg width="24" height="24" viewBox="0 0 24 24" fill="none" xmlns="http://www.w3.org/2000/svg">
<path d="M18.6948 5.26189L18.6965 5.26361C20.4725 7.03961 21.4501 9.40234 21.4501 11.9201C21.4501 17.1039 17.2239 21.3301 12.04 21.3301C10.4644 21.3301 8.91652 20.9314 7.53926 20.181L7.36494 20.086L7.17294 20.1365L2.7599 21.2965L3.93247 16.9915L3.98699 16.7913L3.88381 16.6114C3.06679 15.1863 2.63005 13.5719 2.63005 11.9101C2.63005 6.7262 6.85619 2.50005 12.04 2.50006L12.0417 2.50005C13.2784 2.49595 14.5036 2.73804 15.6459 3.21221C16.7881 3.68637 17.8245 4.38313 18.6948 5.26189ZM7.58279 19.4288L7.5858 19.4306C8.9322 20.2257 10.4699 20.6501 12.04 20.6501C16.8542 20.6501 20.7801 16.7381 20.7601 11.92C20.7642 10.7716 20.5405 9.63372 20.1017 8.57237C19.6629 7.51085 19.0178 6.54699 18.2037 5.73664C16.5598 4.08264 14.3625 3.17005 12.03 3.17005C7.21391 3.17005 3.29005 7.09391 3.29005 11.9101L3.29005 11.9104C3.29103 13.5534 3.75408 15.1631 4.62632 16.5555L4.62628 16.5555L4.6299 16.5611L4.70893 16.6836L3.9377 19.5084L3.70962 20.3437L4.54714 20.1236L7.46342 19.3572L7.58279 19.4288ZM9.1838 11.6244L9.18745 11.6309L9.1913 11.6373C9.34476 11.8931 9.86695 12.7594 10.6672 13.4732C11.5383 14.2515 12.3179 14.5845 12.6516 14.7271C12.7001 14.7479 12.7392 14.7646 12.7678 14.778C12.925 14.8588 13.1298 14.9358 13.3589 14.9092C13.6119 14.8799 13.7901 14.7386 13.9107 14.5943C14.045 14.4404 14.4702 13.9351 14.6799 13.6434C14.6838 13.6447 14.6879 13.6461 14.6921 13.6476C14.8622 13.7196 15.5298 14.0448 15.9781 14.2632C16.1397 14.3419 16.2728 14.4068 16.3437 14.4408C16.397 14.4664 16.447 14.4895 16.489 14.5088C16.4996 14.5137 16.5097 14.5183 16.5191 14.5227C16.5393 14.5321 16.5566 14.5402 16.5718 14.5474C16.5713 14.5744 16.5698 14.606 16.5668 14.642C16.553 14.8062 16.5102 15.0305 16.4199 15.2798L16.4199 15.2798L16.4174 15.2871C16.3744 15.4118 16.1991 15.6118 15.8897 15.8107C15.5935 16.0011 15.2949 16.1134 15.1492 16.1351C14.7541 16.1901 14.3003 16.211 13.8133 16.0541L13.8133 16.0541L13.8062 16.0519C13.4568 15.9451 13.0171 15.8017 12.4517 15.5525L12.4481 15.551C10.2212 14.5901 8.7018 12.3792 8.45468 12.0195C8.4432 12.0028 8.43447 11.9901 8.42853 11.9817L8.42438 11.9758L8.42005 11.9701L8.4182 11.9676C8.36035 11.8905 8.13115 11.5849 7.91582 11.1611C7.69451 10.7255 7.51005 10.2074 7.51005 9.71005C7.51005 8.78029 7.9405 8.30658 8.18489 8.03762C8.20497 8.01552 8.2238 7.99481 8.24102 7.97533C8.36049 7.84729 8.47686 7.83005 8.53005 7.83005H8.99647C9.01621 7.83098 9.03473 7.83133 9.04833 7.83151C9.06264 7.85418 9.08289 7.89127 9.10723 7.94931C9.30269 8.43781 9.81097 9.67994 9.88284 9.82366C9.88502 9.82803 9.88687 9.83189 9.88843 9.83528C9.8881 9.83595 9.88776 9.83663 9.88743 9.83729C9.81421 9.98396 9.78878 10.0349 9.72042 10.1147C9.6659 10.1783 9.6175 10.2369 9.57347 10.2903C9.49786 10.3819 9.43516 10.4578 9.3765 10.5165C9.37381 10.5192 9.37089 10.5221 9.36775 10.5252C9.30849 10.5841 9.17203 10.7196 9.10326 10.911C9.01466 11.1575 9.06045 11.4041 9.1838 11.6244ZM16.6549 14.5911C16.6549 14.5911 16.6547 14.591 16.6543 14.5907L16.6549 14.5911ZM9.02505 7.80022C9.02507 7.80017 9.0257 7.80073 9.02691 7.80204C9.02565 7.80092 9.02504 7.80027 9.02505 7.80022Z" fill="#020617" stroke="#F9FAFB"/>
</svg>
