<svg width="44" height="44" viewBox="0 0 44 44" fill="none" xmlns="http://www.w3.org/2000/svg">
<g filter="url(#filter0_f_2650_5542)">
<path d="M13.6942 34.7011L14.2555 35.033C16.6127 36.4293 19.3155 37.1679 22.0718 37.1691H22.0775C30.542 37.1691 37.4307 30.2952 37.4342 21.8464C37.4357 17.7522 35.8399 13.9022 32.9404 11.0061C31.5184 9.57777 29.8266 8.44519 27.963 7.67389C26.0994 6.90259 24.101 6.50788 22.0836 6.51261C13.6126 6.51261 6.72365 13.3859 6.72064 21.8341C6.71647 24.719 7.5304 27.5461 9.06835 29.9886L9.43372 30.5681L7.88206 36.222L13.6942 34.7011ZM3.4458 40.6021L6.06723 31.0493C4.45053 28.2537 3.59999 25.0821 3.60099 21.8329C3.60526 11.668 11.8932 3.39844 22.0778 3.39844C27.0201 3.40094 31.659 5.32058 35.1478 8.8052C38.6366 12.2898 40.5561 16.9216 40.5544 21.8476C40.5498 32.0118 32.2607 40.2828 22.0775 40.2828H22.0695C18.9775 40.2816 15.9392 39.5074 13.2404 38.0386L3.4458 40.6021Z" fill="#B3B3B3"/>
</g>
<path d="M3.25586 40.4127L5.87729 30.8599C4.2578 28.0575 3.40714 24.8785 3.41105 21.6434C3.41532 11.4785 11.7032 3.20898 21.8879 3.20898C26.8301 3.21149 31.469 5.13113 34.9578 8.61575C38.4466 12.1004 40.3662 16.7322 40.3644 21.6582C40.3599 31.8223 32.0707 40.0934 21.8876 40.0934H21.8796C18.7875 40.0921 15.7493 39.3179 13.0505 37.8492L3.25586 40.4127Z" fill="white"/>
<path d="M21.8932 6.32328C13.4222 6.32328 6.5333 13.1965 6.53029 21.6448C6.52612 24.5296 7.34005 27.3567 8.878 29.7993L9.24338 30.379L7.69171 36.0329L13.5041 34.5118L14.0654 34.8436C16.4226 36.2399 19.1254 36.9783 21.8817 36.9798H21.8875C30.3519 36.9798 37.2408 30.1058 37.2441 21.6571C37.2505 19.6433 36.8566 17.6483 36.0853 15.7876C35.3139 13.9268 34.1804 12.2373 32.7503 10.8167C31.3282 9.38841 29.6364 8.25582 27.7728 7.48451C25.9091 6.71321 23.9107 6.31852 21.8932 6.32328Z" fill="url(#paint0_linear_2650_5542)"/>
<path fill-rule="evenodd" clip-rule="evenodd" d="M17.2703 13.9367C16.9242 13.1695 16.5601 13.1539 16.2314 13.1407L15.3464 13.1299C15.0386 13.1299 14.5383 13.2452 14.1155 13.7063C13.6926 14.1675 12.4995 15.2821 12.4995 17.5491C12.4995 19.8162 14.1539 22.0067 14.3844 22.3145C14.6149 22.6223 17.5781 27.4228 22.2708 29.2697C26.1704 30.8046 26.9639 30.4993 27.8107 30.4226C28.6575 30.346 30.5421 29.3081 30.9266 28.2321C31.3111 27.1561 31.3113 26.2342 31.196 26.0415C31.0808 25.8488 30.7729 25.7342 30.3109 25.5036C29.8488 25.273 27.5794 24.1585 27.1563 24.0046C26.7332 23.8507 26.4255 23.7742 26.1174 24.2354C25.8093 24.6966 24.9256 25.734 24.6562 26.0415C24.3867 26.349 24.1178 26.3876 23.6557 26.1573C23.1936 25.927 21.707 25.4402 19.9432 23.8705C18.5708 22.6491 17.6444 21.1408 17.3747 20.6799C17.105 20.2189 17.3461 19.9693 17.5776 19.7397C17.7848 19.5332 18.0392 19.2016 18.2705 18.9327C18.5017 18.6637 18.5778 18.4715 18.7315 18.1644C18.8852 17.8574 18.8086 17.5877 18.6931 17.3574C18.5776 17.1271 17.6806 14.848 17.2703 13.9367Z" fill="white"/>
<defs>
<filter id="filter0_f_2650_5542" x="2.3858" y="2.33844" width="39.2284" height="39.3241" filterUnits="userSpaceOnUse" color-interpolation-filters="sRGB">
<feFlood flood-opacity="0" result="BackgroundImageFix"/>
<feBlend mode="normal" in="SourceGraphic" in2="BackgroundImageFix" result="shape"/>
<feGaussianBlur stdDeviation="0.53" result="effect1_foregroundBlur_2650_5542"/>
</filter>
<linearGradient id="paint0_linear_2650_5542" x1="21.5746" y1="8.16297" x2="21.7297" y2="34.3609" gradientUnits="userSpaceOnUse">
<stop stop-color="#57D163"/>
<stop offset="1" stop-color="#23B33A"/>
</linearGradient>
</defs>
</svg>
